<svg width="16" height="16" viewBox="0 0 16 16" fill="none" xmlns="http://www.w3.org/2000/svg">
<path d="M7.4833 13.1426C7.8011 12.9508 8.19898 12.9508 8.51678 13.1426L11.636 15.0253C12.3934 15.4824 13.3276 14.8034 13.1266 13.942L12.2988 10.3936C12.2145 10.0321 12.3373 9.65359 12.6179 9.41054L15.3788 7.01882C16.0469 6.44005 15.6906 5.34263 14.8099 5.26669L11.1754 4.95328C10.8065 4.92147 10.4854 4.68849 10.3408 4.3477L8.92055 1.00184C8.57572 0.189483 7.42436 0.189484 7.07953 1.00185L5.65931 4.34771C5.51466 4.68849 5.19357 4.92147 4.82472 4.95328L1.1872 5.26695C0.306974 5.34285 -0.0495857 6.43939 0.617657 7.01848L3.37452 9.41114C3.65425 9.65391 3.77688 10.0314 3.69322 10.3922L2.86933 13.9456C2.66968 14.8067 3.60346 15.4844 4.36022 15.0276L7.4833 13.1426Z" fill="#FFD705"/>
</svg>
